<?xml version="1.0" encoding="utf-8"?>
<!-- Generator: Adobe Illustrator 19.1.0, SVG Export Plug-In . SVG Version: 6.00 Build 0)  -->
<svg version="1.1" id="Layer_1" xmlns="http://www.w3.org/2000/svg" xmlns:xlink="http://www.w3.org/1999/xlink" x="0px" y="0px"
	 viewBox="0 0 100 100" style="enable-background:new 0 0 100 100;" xml:space="preserve">
<style type="text/css">
	.st0{fill-rule:evenodd;clip-rule:evenodd;fill:#FFFFFF;}
	.st1{fill-rule:evenodd;clip-rule:evenodd;fill:#D1D3D4;}
	.st2{fill-rule:evenodd;clip-rule:evenodd;fill:#E6E7E8;}
	.st3{fill-rule:evenodd;clip-rule:evenodd;fill:#A7A9AC;}
</style>
<path class="st0" d="M229.1,442.1c26.2,0,47.4,21.2,47.4,47.4s-21.2,47.4-47.4,47.4c-26.2,0-47.4-21.2-47.4-47.4
	S202.9,442.1,229.1,442.1L229.1,442.1z"/>
<path class="st1" d="M229.1,446.6c23.7,0,42.9,19.2,42.9,42.9c0,23.7-19.2,42.9-42.9,42.9s-42.9-19.2-42.9-42.9
	C186.1,465.8,205.4,446.6,229.1,446.6L229.1,446.6z"/>
<polygon class="st2" points="228.5,485.4 210.6,473.7 210.6,505.3 231.8,491.5 231.8,505.3 255.9,489.5 231.8,473.7 231.8,487.5 
	228.5,485.4 "/>
<path class="st3" d="M228.8,469.8l30.2,19.8l-37.1,42.3c-18.8-3.2-33.5-18.6-35.5-37.8l21.2-24.3l13.4,8.8L228.8,469.8L228.8,469.8z
	"/>
<polygon class="st0" points="207.6,469.8 228.8,483.6 228.8,469.8 258.9,489.5 228.8,509.3 228.8,495.4 207.6,509.3 207.6,469.8 "/>
<path class="st0" d="M49.1,3.1c26.2,0,47.4,21.2,47.4,47.4S75.3,97.9,49.1,97.9c-26.2,0-47.4-21.2-47.4-47.4S22.9,3.1,49.1,3.1
	L49.1,3.1z"/>
<path class="st1" d="M49.1,7.6C72.8,7.6,92,26.8,92,50.5S72.8,93.5,49.1,93.5S6.1,74.2,6.1,50.5S25.4,7.6,49.1,7.6L49.1,7.6z"/>
<polygon class="st2" points="48.5,46.4 30.6,34.7 30.6,66.3 51.8,52.5 51.8,66.3 75.9,50.5 51.8,34.7 51.8,48.5 48.5,46.4 "/>
<path class="st3" d="M48.8,30.8l30.2,19.8L41.9,92.8C23,89.7,8.4,74.2,6.4,55l21.2-24.3L41,39.6L48.8,30.8L48.8,30.8z"/>
<polygon class="st0" points="27.6,30.8 48.8,44.6 48.8,30.8 78.9,50.5 48.8,70.3 48.8,56.4 27.6,70.3 27.6,30.8 "/>
</svg>
