<?xml version="1.0" encoding="utf-8"?>
<!-- Generator: Adobe Illustrator 19.1.0, SVG Export Plug-In . SVG Version: 6.00 Build 0)  -->
<svg version="1.1" xmlns="http://www.w3.org/2000/svg" xmlns:xlink="http://www.w3.org/1999/xlink" x="0px" y="0px"
	 viewBox="0 0 100 100" style="enable-background:new 0 0 100 100;" xml:space="preserve">
<style type="text/css">
	.st0{display:none;}
	.st1{display:inline;fill-rule:evenodd;clip-rule:evenodd;fill:#FFFFFF;}
	.st2{display:inline;fill-rule:evenodd;clip-rule:evenodd;fill:#D1D3D4;}
	.st3{display:inline;fill-rule:evenodd;clip-rule:evenodd;fill:#A7A9AC;}
	.st4{fill-rule:evenodd;clip-rule:evenodd;fill:#FFFFFF;}
	.st5{fill-rule:evenodd;clip-rule:evenodd;fill:#D1D3D4;}
	.st6{fill-rule:evenodd;clip-rule:evenodd;fill:#E6E7E8;}
	.st7{fill-rule:evenodd;clip-rule:evenodd;fill:#A7A9AC;}
</style>
<g id="Layer_1" class="st0">
	<path class="st1" d="M49.2,3.1c26.2,0,47.4,21.2,47.4,47.4S75.4,97.9,49.2,97.9S1.8,76.7,1.8,50.5S23,3.1,49.2,3.1L49.2,3.1z"/>
	<path class="st2" d="M49.2,7.6c23.7,0,42.9,19.2,42.9,42.9S72.9,93.5,49.2,93.5S6.3,74.2,6.3,50.5S25.5,7.6,49.2,7.6L49.2,7.6z"/>
	<path class="st3" d="M8.3,63.6l28.8-32.9l34.2,19.8L35.6,91.3C22.7,86.9,12.5,76.6,8.3,63.6L8.3,63.6z"/>
	<polygon class="st1" points="37.1,30.8 71.3,50.5 37.1,70.3 37.1,30.8 	"/>
</g>
<g id="Layer_2">
	<path class="st4" d="M366.2,305c26.2,0,47.4,21.2,47.4,47.4c0,26.2-21.2,47.4-47.4,47.4c-26.2,0-47.4-21.2-47.4-47.4
		C318.8,326.2,340,305,366.2,305L366.2,305z"/>
	<path class="st5" d="M366.2,309.4c23.7,0,42.9,19.2,42.9,42.9c0,23.7-19.2,42.9-42.9,42.9c-23.7,0-42.9-19.2-42.9-42.9
		C323.3,328.7,342.5,309.4,366.2,309.4L366.2,309.4z"/>
	<path class="st6" d="M360,334.8h-11.4V370H360V334.8L360,334.8z M383.8,334.8h-11.4V370h11.4V334.8L383.8,334.8z"/>
	<path class="st7" d="M386,332.6v39.5l-20.3,23.2c-21.4-0.3-39-16.1-41.9-36.7l22.7-26h15.6v9.4l8.2-9.4H386L386,332.6z"/>
	<path class="st4" d="M346.5,332.6h15.6v39.5h-15.6V332.6L346.5,332.6z M370.3,332.6H386v39.5h-15.6V332.6L370.3,332.6z"/>
	<path class="st4" d="M49.2,3c26.2,0,47.4,21.2,47.4,47.4S75.4,97.8,49.2,97.8S1.8,76.6,1.8,50.4S23,3,49.2,3L49.2,3z"/>
	<path class="st5" d="M49.2,7.4c23.7,0,42.9,19.2,42.9,42.9S72.9,93.3,49.2,93.3S6.3,74.1,6.3,50.4S25.5,7.4,49.2,7.4L49.2,7.4z"/>
	<path class="st6" d="M43,32.8H31.6V68H43V32.8L43,32.8z M66.8,32.8H55.4V68h11.4V32.8L66.8,32.8z"/>
	<path class="st7" d="M69,30.6v39.5L48.7,93.3C27.3,93,9.7,77.2,6.7,56.6l22.7-26h15.6V40l8.2-9.4H69L69,30.6z"/>
	<path class="st4" d="M29.5,30.6h15.6v39.5H29.5V30.6L29.5,30.6z M53.3,30.6H69v39.5H53.3V30.6L53.3,30.6z"/>
</g>
</svg>
