<?xml version="1.0" encoding="utf-8"?>
<!-- Generator: Adobe Illustrator 19.1.0, SVG Export Plug-In . SVG Version: 6.00 Build 0)  -->
<svg version="1.1" id="Layer_1" xmlns="http://www.w3.org/2000/svg" xmlns:xlink="http://www.w3.org/1999/xlink" x="0px" y="0px"
	 viewBox="0 0 100 100" style="enable-background:new 0 0 100 100;" xml:space="preserve">
<style type="text/css">
	.st0{fill-rule:evenodd;clip-rule:evenodd;fill:#FFFFFF;}
	.st1{fill-rule:evenodd;clip-rule:evenodd;fill:#D1D3D4;}
	.st2{fill-rule:evenodd;clip-rule:evenodd;fill:#A7A9AC;}
</style>
<path class="st0" d="M49.2,3.1c26.2,0,47.4,21.2,47.4,47.4S75.4,97.9,49.2,97.9S1.8,76.7,1.8,50.5S23,3.1,49.2,3.1L49.2,3.1z"/>
<path class="st1" d="M49.2,7.6c23.7,0,42.9,19.2,42.9,42.9S72.9,93.5,49.2,93.5S6.3,74.2,6.3,50.5S25.5,7.6,49.2,7.6L49.2,7.6z"/>
<path class="st2" d="M8.3,63.6l28.8-32.9l34.2,19.8L35.6,91.3C22.7,86.9,12.5,76.6,8.3,63.6L8.3,63.6z"/>
<polygon class="st0" points="37.1,30.8 71.3,50.5 37.1,70.3 37.1,30.8 "/>
</svg>
