<?xml version="1.0" encoding="utf-8"?>
<!-- Generator: Adobe Illustrator 19.1.0, SVG Export Plug-In . SVG Version: 6.00 Build 0)  -->
<svg version="1.1" xmlns="http://www.w3.org/2000/svg" xmlns:xlink="http://www.w3.org/1999/xlink" x="0px" y="0px"
	 viewBox="0 0 500 500" style="enable-background:new 0 0 500 500;" xml:space="preserve">
<style type="text/css">
	.st0{display:none;}
	.st1{display:inline;fill-rule:evenodd;clip-rule:evenodd;}
	.st2{display:inline;fill:#003DA6;}
	.st3{display:inline;fill:#666666;}
	.st4{display:inline;fill:#FFFFFF;}
	.st5{display:inline;fill:#00A8E1;}
	.st6{display:inline;fill:#808080;}
	.st7{display:inline;fill:#CCCCCC;}
	.st8{display:inline;fill:#333333;}
	.st9{display:inline;fill:#8FC7E8;}
	.st10{display:inline;fill:#1A1A1A;}
	.st11{display:inline;fill-rule:evenodd;clip-rule:evenodd;fill:#1A1A1A;}
	.st12{display:inline;fill-rule:evenodd;clip-rule:evenodd;fill:#CCCCCC;}
	.st13{fill:#003DA6;}
	.st14{opacity:0.4;fill:#FFFFFF;}
	.st15{fill:#FFFFFF;}
	.st16{opacity:0.6;fill:#FFFFFF;}
	.st17{opacity:0.8;fill:#FFFFFF;}
	.st18{fill:#00A8E1;}
	.st19{opacity:0.1;fill:#FFFFFF;}
	.st20{display:inline;fill-rule:evenodd;clip-rule:evenodd;fill:#FFFFFF;}
</style>
<g id="Layer_2" class="st0">
	<rect x="0" y="0" class="st1" width="500" height="500"/>
</g>
<g id="Layer_1" class="st0">
	<polygon class="st2" points="359.4,392.4 359.4,392.4 359.4,392.4 	"/>
	<polygon class="st3" points="373.9,407 353.6,407 339,392.4 254.8,392.6 268.7,392.7 283.1,407 374,407.1 	"/>
	<polygon class="st2" points="249.2,393 263.4,407 263.4,407 249.2,393 	"/>
	<polygon class="st4" points="249.6,282.8 259.7,293 249.9,303.4 249.8,303.5 339,392.4 359.4,392.4 	"/>
	<polygon class="st5" points="374,407 359.4,392.4 373.9,407 	"/>
	<polygon class="st6" points="373.9,407 359.4,392.4 359.4,392.4 339,392.4 353.6,407 	"/>
	<polygon class="st4" points="249.8,293.2 249.6,282.8 84.6,448 105,448 249.8,303.5 249.7,303.4 	"/>
	<polygon class="st7" points="259.7,293 249.6,282.8 249.8,293.2 249.7,303.4 249.8,303.5 249.9,303.4 	"/>
	<polygon class="st7" points="303.6,448 324,448 283.1,407 263.4,407 	"/>
	<polygon class="st5" points="249.2,392.5 249.2,392.6 254.8,392.6 	"/>
	<polygon class="st8" points="254.8,392.6 249.2,392.6 263.4,407 283.1,407 268.7,392.7 	"/>
	<polygon class="st4" points="254.1,201.3 259.8,207.1 415,52 394.6,52 249.8,196.7 249.9,196.8 	"/>
	<polygon class="st3" points="259.7,207.2 259.7,207.3 249.6,217.3 240,207.7 240,207.7 240,243 260,243 260,207.3 259.8,207.1 	"/>
	<polygon class="st5" points="259.7,207.2 259.8,207.1 254.1,201.3 	"/>
	<polygon class="st4" points="249.8,196.7 105,52 84.6,52 240,207.7 249.7,196.8 	"/>
	<polygon class="st9" points="254.1,201.3 249.9,196.8 249.8,196.7 249.7,196.8 	"/>
	<polygon class="st9" points="259.7,207.3 259.7,207.2 249.6,217.3 	"/>
	<polygon class="st7" points="249.8,207 249.7,196.8 240,207.7 249.6,217.3 	"/>
	<polygon class="st6" points="249.7,196.8 249.8,207 249.6,217.3 259.7,207.2 254.1,201.3 	"/>
	<polygon class="st10" points="61,381 75,366 75,119 61,105 	"/>
	<polygon class="st6" points="61,415 61,448 75,448 75,401 	"/>
	<polygon class="st4" points="75,401 226.3,249.5 216.9,258.9 205.7,249.9 205.6,249.8 61,394.6 75,380.6 	"/>
	<polygon class="st3" points="75,380.6 61,394.6 61,415 75,401 	"/>
	<polygon class="st4" points="215.9,249.7 226.3,249.5 61,84.5 61,84.6 75,98.6 75,119 205.6,249.8 205.7,249.6 	"/>
	<polygon class="st9" points="61,84.6 61,105 75,119 75,98.6 	"/>
	<polygon class="st7" points="216.9,258.9 226.3,249.5 215.9,249.7 205.7,249.6 205.6,249.8 205.7,249.9 	"/>
	<polygon class="st11" points="439,415.4 439,394.9 416,371.6 416,392 	"/>
	<polygon class="st12" points="75,98.6 75,119 61,104.8 61,84.6 	"/>
	<polygon class="st4" points="294.4,249.9 283.3,258.9 273.8,249.5 392,368 392,347.5 294.5,249.8 	"/>
	<polygon class="st4" points="294.4,249.6 294.5,249.8 439,105 439,84.5 273.8,249.5 284.3,249.7 	"/>
	<polygon class="st7" points="294.4,249.9 294.5,249.8 294.4,249.6 284.3,249.7 273.8,249.5 283.3,258.9 	"/>
	<polygon class="st2" points="406,361.5 392,347.3 392,347.5 406,361.6 	"/>
	<polygon class="st2" points="392,368 406,382 392,368 	"/>
	<polygon class="st3" points="406,382 406,361.6 392,347.5 392,368 	"/>
</g>
<g id="Layer_1_copy_6">
	<polygon class="st13" points="359.4,392.4 359.4,392.4 359.4,392.4 	"/>
	<polygon class="st14" points="373.9,407 353.6,407 339,392.4 254.8,392.6 268.7,392.7 283.1,407 374,407.1 	"/>
	<polygon class="st15" points="249.6,282.8 259.7,293 249.9,303.4 249.8,303.5 339,392.4 359.4,392.4 	"/>
	<polygon class="st16" points="373.9,407 359.4,392.4 359.4,392.4 339,392.4 353.6,407 	"/>
	<polygon class="st15" points="249.8,293.2 249.6,282.8 84.6,448 105,448 249.8,303.5 249.7,303.4 	"/>
	<polygon class="st17" points="259.7,293 249.6,282.8 249.8,293.2 249.7,303.4 249.8,303.5 249.9,303.4 	"/>
	<polygon class="st17" points="303.6,448 324,448 283.1,407 263.4,407 	"/>
	<polygon class="st18" points="249.2,392.5 249.2,392.6 254.8,392.6 	"/>
	<polygon class="st19" points="254.8,392.6 249.2,392.6 263.4,407 283.1,407 268.7,392.7 	"/>
</g>
<g id="Layer_1_copy_5" class="st0">
	<polygon class="st11" points="439,415.4 439,394.9 416,371.6 416,392 	"/>
	<polygon class="st4" points="294.4,249.9 283.3,258.9 273.8,249.5 392,368 392,347.5 294.5,249.8 	"/>
	<polygon class="st4" points="294.4,249.6 294.5,249.8 439,105 439,84.5 273.8,249.5 284.3,249.7 	"/>
	<polygon class="st7" points="294.4,249.9 294.5,249.8 294.4,249.6 284.3,249.7 273.8,249.5 283.3,258.9 	"/>
	<polygon class="st3" points="406,382 406,361.6 392,347.5 392,368 	"/>
</g>
<g id="Layer_1_copy_4" class="st0">
	<polygon class="st4" points="254.1,201.3 259.8,207.1 415,52 394.6,52 249.8,196.7 249.9,196.8 	"/>
	<polygon class="st3" points="259.7,207.2 259.7,207.3 249.6,217.3 240,207.7 240,207.7 240,243 260,243 260,207.3 259.8,207.1 	"/>
	<polygon class="st5" points="259.7,207.2 259.8,207.1 254.1,201.3 	"/>
	<polygon class="st4" points="249.8,196.7 105,52 84.6,52 240,207.7 249.7,196.8 	"/>
	<polygon class="st9" points="254.1,201.3 249.9,196.8 249.8,196.7 249.7,196.8 	"/>
	<polygon class="st9" points="259.7,207.3 259.7,207.2 249.6,217.3 	"/>
	<polygon class="st7" points="249.8,207 249.7,196.8 240,207.7 249.6,217.3 	"/>
	<polygon class="st6" points="249.7,196.8 249.8,207 249.6,217.3 259.7,207.2 254.1,201.3 	"/>
</g>
<g id="Layer_1_copy_3" class="st0">
	<polygon class="st10" points="61,381 75,366 75,119 61,105 	"/>
	<polygon class="st6" points="61,415 61,448 75,448 75,401 	"/>
	<polygon class="st4" points="75,401 226.3,249.5 216.9,258.9 205.7,249.9 205.6,249.8 61,394.6 75,380.6 	"/>
	<polygon class="st3" points="75,380.6 61,394.6 61,415 75,401 	"/>
	<polygon class="st4" points="215.9,249.7 226.3,249.5 61,84.5 61,84.6 75,98.6 75,119 205.6,249.8 205.7,249.6 	"/>
	<polygon class="st9" points="61,84.6 61,105 75,119 75,98.6 	"/>
	<polygon class="st7" points="216.9,258.9 226.3,249.5 215.9,249.7 205.7,249.6 205.6,249.8 205.7,249.9 	"/>
	<polygon class="st12" points="75,98.6 75,119 61,104.8 61,84.6 	"/>
</g>
<g id="Layer_1_copy_2" class="st0">
	<polygon class="st4" points="249.6,282.8 259.7,293 249.9,303.4 249.8,303.5 395,448.4 415.4,448.4 	"/>
	<polygon class="st4" points="249.8,293.2 249.6,282.8 84.6,448 105,448 249.8,303.5 249.7,303.4 	"/>
	<polygon class="st4" points="259.7,293 249.6,282.8 249.8,293.2 249.7,303.4 249.8,303.5 249.9,303.4 	"/>
	<polygon class="st4" points="415,52 394.6,52 249.8,196.7 105,52 84.6,52 240,207.7 249.6,217.3 259.7,207.3 259.7,207.2 
		254.1,201.3 259.8,207.1 	"/>
	<polygon class="st9" points="61,84.6 61,105 75,119 75,98.6 	"/>
	<polygon class="st20" points="61,84.5 61,84.6 61,104.8 75,119 75,119 205.6,249.8 61,394.6 61,415 75,401 226.3,249.5 	"/>
	<polygon class="st4" points="439,84.5 273.8,249.5 439,415 439,394.5 294.5,249.8 439,105 	"/>
</g>
<g id="Layer_1_copy" class="st0">
	<path class="st6" d="M249.7,196.8"/>
	<polygon class="st4" points="351.5,52 311.5,92 353.5,92 249.6,195.8 146,92 187.9,92 148,52 84.6,52 249.6,217.3 415,52 	"/>
	<polygon class="st4" points="188.1,408 146.1,408 249.9,304.2 353.6,408 311.6,408 351.6,448 415,448 250,282.7 84.6,448 
		148.1,448 	"/>
	<path class="st4" d="M61,84.1v330.4l165.3-165L61,84.1z M74,115.5l133.9,134L74,383.2V115.5z"/>
	<path class="st4" d="M273.7,249.1L439,414.6V84.1L273.7,249.1z M363,320.1l-70.9-71l70.9-70.8V320.1z M426,383.2l-50-50V165.4
		l50-49.9V383.2z"/>
</g>
</svg>
