<?xml version="1.0" encoding="utf-8"?>
<!-- Generator: Adobe Illustrator 19.1.0, SVG Export Plug-In . SVG Version: 6.00 Build 0)  -->
<svg version="1.1" id="Layer_1" xmlns="http://www.w3.org/2000/svg" xmlns:xlink="http://www.w3.org/1999/xlink" x="0px" y="0px"
	 viewBox="0 0 500 500" style="enable-background:new 0 0 500 500;" xml:space="preserve">
<style type="text/css">
	.st0{opacity:0;fill:#FFFFFF;}
	.st1{fill:#FFFFFF;}
</style>
<polygon class="st0" points="351.5,52 311.5,92 353.5,92 249.6,195.8 146,92 187.9,92 148,52 84.6,52 249.6,217.3 415,52 "/>
<polygon class="st0" points="188.1,408 146.1,408 249.9,304.2 353.6,408 311.6,408 351.6,448 415,448 250,282.7 84.6,448 148.1,448 
	"/>
<path class="st0" d="M61,84.1v330.4l165.3-165L61,84.1z M74,115.5l133.9,134L74,383.2V115.5z"/>
<path class="st1" d="M273.7,249.1L439,414.6V84.1L273.7,249.1z M363,320.1l-70.9-71l70.9-70.8V320.1z M426,383.2l-50-50V165.4
	l50-49.9V383.2z"/>
</svg>
