<?xml version="1.0" encoding="utf-8"?>
<!-- Generator: Adobe Illustrator 19.1.0, SVG Export Plug-In . SVG Version: 6.00 Build 0)  -->
<svg version="1.1" id="Layer_1" xmlns="http://www.w3.org/2000/svg" xmlns:xlink="http://www.w3.org/1999/xlink" x="0px" y="0px"
	 viewBox="125 -125 500 500" style="enable-background:new 125 -125 500 500;" xml:space="preserve">
<style type="text/css">
	.st0{display:none;}
	.st1{display:inline;}
	.st2{opacity:0.4;fill:#FFFFFF;}
	.st3{fill:#FFFFFF;}
	.st4{opacity:0.6;fill:#FFFFFF;}
	.st5{opacity:0.8;fill:#FFFFFF;}
	.st6{opacity:0.2;fill:#FFFFFF;}
	.st7{opacity:0.1;fill:#FFFFFF;}
	.st8{display:inline;fill:#808080;}
	.st9{display:inline;fill:#FFFFFF;}
</style>
<g id="Layer_2" class="st0">
	<rect x="125" y="-125" class="st1" width="500" height="500"/>
</g>
<polygon class="st2" points="498.9,282 478.6,282 464,267.4 379.8,267.6 393.7,267.7 408.1,282 499,282.1 "/>
<polygon class="st3" points="374.6,157.8 384.7,168 374.9,178.4 374.8,178.5 464,267.4 484.4,267.4 "/>
<polygon class="st4" points="498.9,282 484.4,267.4 484.4,267.4 464,267.4 478.6,282 "/>
<polygon class="st3" points="374.8,168.2 374.6,157.8 209.6,323 230,323 374.8,178.5 374.7,178.4 "/>
<polygon class="st5" points="384.7,168 374.6,157.8 374.8,168.2 374.7,178.4 374.8,178.5 374.9,178.4 "/>
<polygon class="st5" points="428.6,323 449,323 408.1,282 388.4,282 "/>
<polygon class="st6" points="379.8,267.6 374.2,267.6 388.4,282 408.1,282 393.7,267.7 "/>
<polygon class="st3" points="379.1,76.3 384.8,82.1 540,-73 519.6,-73 374.8,71.7 374.9,71.8 "/>
<polygon class="st2" points="384.7,82.2 384.7,82.3 374.6,92.3 365,82.7 365,82.7 365,118 385,118 385,82.3 384.8,82.1 "/>
<polygon class="st3" points="374.8,71.7 230,-73 209.6,-73 365,82.7 374.7,71.8 "/>
<polygon class="st5" points="374.8,82 374.7,71.8 365,82.7 374.6,92.3 "/>
<polygon class="st4" points="374.7,71.8 374.8,82 374.6,92.3 384.7,82.2 379.1,76.3 "/>
<polygon class="st7" points="186,256 200,241 200,-6 186,-20 "/>
<polygon class="st4" points="186,290 186,323 200,323 200,276 "/>
<polygon class="st3" points="200,276 351.3,124.5 341.9,133.9 330.7,124.9 330.6,124.8 186,269.6 200,255.6 "/>
<polygon class="st2" points="200,255.6 186,269.6 186,290 200,276 "/>
<polygon class="st3" points="340.9,124.7 351.3,124.5 186,-40.5 186,-40.4 200,-26.4 200,-6 330.6,124.8 330.7,124.6 "/>
<polygon class="st5" points="341.9,133.9 351.3,124.5 340.9,124.7 330.7,124.6 330.6,124.8 330.7,124.9 "/>
<polygon class="st7" points="564,290.4 564,269.9 541,246.6 541,267 "/>
<polygon class="st5" points="200,-26.4 200,-6 186,-20.2 186,-40.4 "/>
<polygon class="st3" points="419.4,124.9 408.3,133.9 398.8,124.5 517,243 517,222.5 419.5,124.8 "/>
<polygon class="st3" points="419.4,124.6 419.5,124.8 564,-20 564,-40.5 398.8,124.5 409.3,124.7 "/>
<polygon class="st5" points="419.4,124.9 419.5,124.8 419.4,124.6 409.3,124.7 398.8,124.5 408.3,133.9 "/>
<polygon class="st2" points="531,257 531,236.6 517,222.5 517,243 "/>
<g id="Layer_1_copy" class="st0">
	<path class="st8" d="M374.7,71.8"/>
	<polygon class="st9" points="476.5,-73 436.5,-33 478.5,-33 374.6,70.8 271,-33 312.9,-33 273,-73 209.6,-73 374.6,92.3 540,-73 	
		"/>
	<polygon class="st9" points="313.1,283 271.1,283 374.9,179.2 478.6,283 436.6,283 476.6,323 540,323 375,157.7 209.6,323 
		273.1,323 	"/>
	<path class="st9" d="M186-40.9v330.4l165.3-165L186-40.9z M199-9.5l133.9,134L199,258.2V-9.5z"/>
	<path class="st9" d="M398.7,124.1L564,289.6V-40.9L398.7,124.1z M488,195.1l-70.9-71L488,53.3V195.1z M551,258.2l-50-50V40.4
		l50-49.9V258.2z"/>
</g>
</svg>
