<?xml version="1.0" encoding="utf-8"?>
<!-- Generator: Adobe Illustrator 19.1.0, SVG Export Plug-In . SVG Version: 6.00 Build 0)  -->
<svg version="1.1" xmlns="http://www.w3.org/2000/svg" xmlns:xlink="http://www.w3.org/1999/xlink" x="0px" y="0px"
	 viewBox="0 0 396 396" style="enable-background:new 0 0 396 396;" xml:space="preserve">
<style type="text/css">
	.st0{display:none;}
	.st1{display:inline;fill:#666666;}
	.st2{display:inline;fill:#FFFFFF;}
	.st3{fill:#FFFFFF;}
</style>
<g id="Layer_2" class="st0">
	<rect x="-52" y="-52" class="st1" width="500" height="500"/>
</g>
<g id="Layer_1" class="st0">
	<path class="st2" d="M0,233.9L233.6,0.2L0.1,0L0,233.9z M13,202.5L13.1,13l189.2,0.2L13,202.5z"/>
	<path class="st2" d="M395.9,396l0.1-233.9L162.4,395.8L395.9,396z M383,282.7l0,100.3l-100.2-0.1L383,282.7z M383,193.5l0,70.7
		L264.4,382.9l-70.6-0.1L383,193.5z"/>
</g>
<g id="Layer_3">
	<polygon class="st3" points="207,44.9 263.6,44.9 233.9,15.2 380.8,15.3 380.6,161.9 351,132.3 350.9,188.8 395.8,233.6 396,0.1 
		162.1,0 	"/>
	<polygon class="st3" points="132.4,351.1 162.1,380.8 15.2,380.7 15.4,234.1 45,263.7 45.1,207.2 0.2,162.4 0,395.9 233.9,396 
		189,351.1 	"/>
</g>
</svg>
